<svg version="1.1" xmlns="http://www.w3.org/2000/svg" viewBox="0 0 1253.1912304943216 1109.3870466563044" width="1253.1912304943216" height="1109.3870466563044">
  <!-- svg-source:excalidraw -->
  
  <defs>
    <style class="style-fonts">
      @font-face {
        font-family: "Virgil";
        src: url("https://excalidraw.com/Virgil.woff2");
      }
      @font-face {
        font-family: "Cascadia";
        src: url("https://excalidraw.com/Cascadia.woff2");
      }
    </style>
  </defs>
  <rect x="0" y="0" width="1253.1912304943216" height="1109.3870466563044" fill="#ffffff"></rect><g stroke-linecap="round" transform="translate(699.8662997803394 10) rotate(0 84.74807425179961 61.81925327271961)"><path d="M7.57 7.91 C7.57 7.91, 7.57 7.91, 7.57 7.91 M7.57 7.91 C7.57 7.91, 7.57 7.91, 7.57 7.91 M3.37 18.83 C7.72 13.4, 12.87 8.2, 17.81 2.23 M3.37 18.83 C6.2 14.87, 10.03 10.11, 17.81 2.23 M2.46 25.99 C8.79 16.16, 18.68 6.41, 24.11 1.08 M2.46 25.99 C8.31 20.25, 12.08 13.49, 24.11 1.08 M2.85 31.63 C11.55 25.64, 15.06 17.41, 29.75 0.69 M2.85 31.63 C13.07 21.53, 22.8 9.58, 29.75 0.69 M2.59 38.03 C10.66 25.4, 22.31 17.43, 33.42 2.55 M2.59 38.03 C9.49 29.7, 14.91 22.03, 33.42 2.55 M2.98 43.67 C10.86 34, 17.61 23.61, 39.07 2.16 M2.98 43.67 C15.05 30.35, 25.72 17.84, 39.07 2.16 M2.72 50.07 C17.36 33.23, 28.53 21.36, 44.05 2.52 M2.72 50.07 C14.72 36.43, 25.83 22.85, 44.05 2.52 M2.46 56.46 C16.58 42.48, 28.87 26.3, 49.7 2.13 M2.46 56.46 C16.98 40.49, 30.01 24.04, 49.7 2.13 M2.86 62.11 C14.37 48.84, 28.76 31.92, 54.68 2.49 M2.86 62.11 C22.03 41.75, 39.35 20.38, 54.68 2.49 M2.59 68.51 C24.35 42.3, 45.83 16.56, 60.33 2.09 M2.59 68.51 C24.19 43.33, 46.1 19.15, 60.33 2.09 M2.99 74.15 C28.31 43.89, 53.39 15.95, 65.31 2.45 M2.99 74.15 C20.62 54.38, 40.11 32.46, 65.31 2.45 M2.73 80.55 C28.54 49.99, 52.43 24.68, 70.96 2.06 M2.73 80.55 C20.78 58.59, 40.85 37.74, 70.96 2.06 M2.47 86.94 C29.22 52.95, 59.78 21.35, 75.94 2.42 M2.47 86.94 C26.04 61.02, 49.22 33.57, 75.94 2.42 M2.86 92.59 C33.76 58.74, 62.03 23.23, 81.59 2.02 M2.86 92.59 C31.88 57.08, 63.68 23.87, 81.59 2.02 M1.29 100.49 C25.14 71.32, 52.69 43.92, 86.57 2.38 M1.29 100.49 C20.1 78.33, 38.15 56.1, 86.57 2.38 M2.34 105.38 C35.6 64.39, 69.17 26.97, 92.22 1.99 M2.34 105.38 C33.7 69.24, 65.08 32.53, 92.22 1.99 M4.7 108.76 C34.32 73.52, 63.47 40.68, 97.2 2.35 M4.7 108.76 C40.62 68.82, 74.88 27.28, 97.2 2.35 M7.06 112.14 C35.67 77.7, 66.67 46.23, 102.19 2.71 M7.06 112.14 C35.48 79.55, 63.23 47.75, 102.19 2.71 M8.77 116.27 C37.13 86.65, 64.64 53.67, 107.83 2.31 M8.77 116.27 C39.64 80.42, 70.85 42.97, 107.83 2.31 M11.79 118.9 C42.85 86.08, 70.87 52.38, 112.82 2.67 M11.79 118.9 C31.39 95.52, 53.31 71.16, 112.82 2.67 M15.46 120.77 C50.75 80.08, 87.43 37.67, 118.46 2.28 M15.46 120.77 C48.65 82.99, 82.34 43.62, 118.46 2.28 M19.14 122.64 C43.42 95.48, 70.05 64.29, 123.45 2.64 M19.14 122.64 C55.48 82.71, 89.9 43.27, 123.45 2.64 M23.47 123.75 C59.1 81.37, 93.36 42.68, 129.09 2.24 M23.47 123.75 C51.04 92.49, 79.03 60.21, 129.09 2.24 M28.46 124.11 C52.67 93.82, 79.18 62.21, 134.08 2.6 M28.46 124.11 C68.93 76.74, 110.22 29.18, 134.08 2.6 M32.79 125.23 C72.84 81.76, 113.27 35.57, 140.38 1.46 M32.79 125.23 C69.67 83.24, 106.6 39.88, 140.38 1.46 M37.77 125.59 C81.07 78.29, 121.74 30.38, 145.37 1.82 M37.77 125.59 C77.08 79.04, 117.53 35.89, 145.37 1.82 M43.42 125.19 C66.86 97.57, 93.87 65.71, 149.7 2.93 M43.42 125.19 C82.55 78.68, 123.86 31.99, 149.7 2.93 M48.4 125.55 C82.51 86.88, 119.58 46, 154.03 4.04 M48.4 125.55 C78.28 90.71, 109.92 55.51, 154.03 4.04 M54.05 125.16 C78.8 99.1, 100.29 72.79, 157.7 5.91 M54.05 125.16 C85.43 90.89, 117.53 55.54, 157.7 5.91 M59.03 125.52 C91.86 89.23, 126.52 49.17, 161.38 7.78 M59.03 125.52 C89.38 91.21, 118.82 54.22, 161.38 7.78 M64.68 125.12 C90.99 95.34, 117.1 65.71, 164.4 10.41 M64.68 125.12 C89.88 97.25, 112.28 70.06, 164.4 10.41 M69.66 125.48 C105.23 84.63, 146.65 40.3, 166.76 13.79 M69.66 125.48 C103.97 84.54, 139.17 44.35, 166.76 13.79 M75.31 125.09 C97.73 98.2, 119.45 75.39, 168.47 17.92 M75.31 125.09 C101.32 94.75, 128.31 61.83, 168.47 17.92 M80.29 125.45 C109.78 87.71, 144.08 53.37, 168.86 23.56 M80.29 125.45 C108.28 93.78, 135.08 60.7, 168.86 23.56 M85.94 125.06 C107.92 100.49, 131.69 70.78, 169.91 28.45 M85.94 125.06 C109.37 97.18, 134.34 69.03, 169.91 28.45 M90.92 125.42 C106.66 103.67, 125.52 84.99, 171.62 32.59 M90.92 125.42 C113.87 98.88, 137.19 73.53, 171.62 32.59 M96.57 125.02 C124.69 93.54, 153.92 59.67, 171.36 38.98 M96.57 125.02 C116.51 102.52, 136.99 78.27, 171.36 38.98 M101.55 125.38 C126 97.12, 150.03 71.84, 171.75 44.63 M101.55 125.38 C117.85 108.3, 133.23 88.29, 171.75 44.63 M107.2 124.99 C124 106.15, 142.68 83.07, 171.49 51.02 M107.2 124.99 C120.7 108.84, 133.5 93.69, 171.49 51.02 M112.18 125.35 C131.38 103.1, 149.05 83.75, 171.23 57.42 M112.18 125.35 C124.97 112.24, 136.15 97.72, 171.23 57.42 M117.83 124.95 C137.37 104.1, 154.27 87.27, 171.62 63.07 M117.83 124.95 C130.92 108.64, 145.53 92.88, 171.62 63.07 M122.82 125.31 C136.94 110.43, 153.07 92.72, 171.36 69.46 M122.82 125.31 C138.23 108.64, 153.07 92.16, 171.36 69.46 M128.46 124.92 C139.01 113.18, 145.93 103.46, 171.1 75.86 M128.46 124.92 C140.94 109.67, 155.56 95.26, 171.1 75.86 M133.45 125.28 C142.16 114.41, 148.57 104.96, 171.5 81.5 M133.45 125.28 C144.91 112.44, 156.81 98.23, 171.5 81.5 M139.74 124.13 C146.39 115.64, 156.66 103.31, 171.24 87.9 M139.74 124.13 C147.89 114.02, 157.3 104.22, 171.24 87.9 M145.39 123.73 C154.54 111.8, 164.72 99.55, 170.97 94.3 M145.39 123.73 C150.91 116.65, 158.27 108.61, 170.97 94.3 M152.34 121.83 C157.56 115.62, 164.55 106.02, 170.06 101.45 M152.34 121.83 C159.26 112.99, 167.43 106.03, 170.06 101.45" stroke="#fab005" stroke-width="0.5" fill="none"></path><path d="M30.91 0 M30.91 0 C68.19 -1.46, 100.85 -0.71, 138.59 0 M30.91 0 C58.17 -0.82, 85.86 -0.92, 138.59 0 M138.59 0 C157.7 -0.36, 167.9 10.77, 169.5 30.91 M138.59 0 C160.01 -0.51, 168.4 9.62, 169.5 30.91 M169.5 30.91 C168.08 53.24, 171.05 77.83, 169.5 92.73 M169.5 30.91 C168.71 48.34, 169.95 65.53, 169.5 92.73 M169.5 92.73 C167.63 113.5, 159.5 122.7, 138.59 123.64 M169.5 92.73 C167.28 112.57, 157.69 124.63, 138.59 123.64 M138.59 123.64 C114.58 122.57, 86.62 123.73, 30.91 123.64 M138.59 123.64 C114.57 123.2, 91.5 124.38, 30.91 123.64 M30.91 123.64 C8.39 124.5, 1.14 114.06, 0 92.73 M30.91 123.64 C11.85 124.07, -0.85 112.73, 0 92.73 M0 92.73 C1.23 75.15, 1.09 57.86, 0 30.91 M0 92.73 C0.28 68.87, -0.08 44.04, 0 30.91 M0 30.91 C-1.58 9.38, 10.89 1.76, 30.91 0 M0 30.91 C1.99 10.37, 9.52 -0.26, 30.91 0" stroke="#000000" stroke-width="1" fill="none"></path></g><g transform="translate(717.8343981410258 50.2192532727197) rotate(0 66.77997589111328 21.600000000000023)"><text x="66.77997589111328" y="0" font-family="Virgil, Segoe UI Emoji" font-size="36px" fill="#000000" text-anchor="middle" style="white-space: pre;" direction="ltr" dominant-baseline="text-before-edge">Bitcask</text></g><g stroke-linecap="round" transform="translate(725.2212017235706 747.9657176971352) rotate(0 84.74807425179961 61.81925327271961)"><path d="M30.91 0 M30.91 0 C72.38 0.2, 117.37 -0.92, 138.59 0 M30.91 0 C54.39 -0.73, 77.33 -0.82, 138.59 0 M138.59 0 C159.48 -1.41, 167.91 10.98, 169.5 30.91 M138.59 0 C160.85 -2.07, 167.46 12.4, 169.5 30.91 M169.5 30.91 C167.5 48.54, 170.19 69.52, 169.5 92.73 M169.5 30.91 C168.5 49.97, 169.71 68.64, 169.5 92.73 M169.5 92.73 C171.47 112.42, 160.06 123.53, 138.59 123.64 M169.5 92.73 C169.98 113.86, 159.79 125.35, 138.59 123.64 M138.59 123.64 C113.9 125.54, 88.15 125.64, 30.91 123.64 M138.59 123.64 C111.47 123.59, 84.57 123.92, 30.91 123.64 M30.91 123.64 C10.56 125.23, -1.45 113.26, 0 92.73 M30.91 123.64 C11.19 124.25, 1.68 113.92, 0 92.73 M0 92.73 C-1.37 76.55, -1.42 59.97, 0 30.91 M0 92.73 C0.1 72.8, 1.03 54.03, 0 30.91 M0 30.91 C-0.63 10.93, 11.99 1.86, 30.91 0 M0 30.91 C-1.61 10.5, 9.07 -0.62, 30.91 0" stroke="#000000" stroke-width="1" fill="none"></path></g><g transform="translate(750.959334874296 797.7849709698548) rotate(0 59.00994110107422 12)"><text x="59.00994110107422" y="0" font-family="Virgil, Segoe UI Emoji" font-size="20px" fill="#000000" text-anchor="middle" style="white-space: pre;" direction="ltr" dominant-baseline="text-before-edge">DiskStorage</text></g><g stroke-linecap="round" transform="translate(1073.6950819907224 209.44501552029124) rotate(0 84.74807425179961 61.81925327271961)"><path d="M30.91 0 M30.91 0 C68.45 -2.17, 104.26 -2.03, 138.59 0 M30.91 0 C61.75 -0.79, 93.95 0.33, 138.59 0 M138.59 0 C159.17 -1.67, 167.86 11.92, 169.5 30.91 M138.59 0 C160.7 -0.06, 168.7 8.73, 169.5 30.91 M169.5 30.91 C170.55 42.12, 169.93 56.99, 169.5 92.73 M169.5 30.91 C168.46 51.93, 169.19 72.36, 169.5 92.73 M169.5 92.73 C168.93 111.94, 158.49 123.59, 138.59 123.64 M169.5 92.73 C170.64 113.45, 158.35 123.63, 138.59 123.64 M138.59 123.64 C110.08 120.81, 82.87 122.62, 30.91 123.64 M138.59 123.64 C114.95 123.27, 89.9 123.92, 30.91 123.64 M30.91 123.64 C12.03 123.52, -0.14 113.44, 0 92.73 M30.91 123.64 C10.33 125.06, -0.45 112.79, 0 92.73 M0 92.73 C-0.17 70.1, 0.41 46.14, 0 30.91 M0 92.73 C-0.57 73.13, -0.18 55.87, 0 30.91 M0 30.91 C0.38 10.58, 10.68 1.78, 30.91 0 M0 30.91 C-0.4 10.98, 11.01 -0.18, 30.91 0" stroke="#000000" stroke-width="1" fill="none"></path></g><g transform="translate(1132.3931760789478 259.26426879301084) rotate(0 26.04998016357422 12)"><text x="26.04998016357422" y="0" font-family="Virgil, Segoe UI Emoji" font-size="20px" fill="#000000" text-anchor="middle" style="white-space: pre;" direction="ltr" dominant-baseline="text-before-edge">Entry</text></g><g stroke-linecap="round" transform="translate(715.4082231151865 975.7485401108651) rotate(0 84.74807425179961 61.81925327271961)"><path d="M30.91 0 M30.91 0 C68.88 -0.33, 105.67 1.81, 138.59 0 M30.91 0 C68.43 0.13, 105.11 0.23, 138.59 0 M138.59 0 C160 -0.08, 169.71 12, 169.5 30.91 M138.59 0 C158.66 0.83, 171.58 9.46, 169.5 30.91 M169.5 30.91 C169.24 43.95, 171.01 54.24, 169.5 92.73 M169.5 30.91 C169.46 54.96, 168.3 77.02, 169.5 92.73 M169.5 92.73 C169.09 111.4, 160.24 123.61, 138.59 123.64 M169.5 92.73 C167.26 115.05, 159.03 125.71, 138.59 123.64 M138.59 123.64 C112.93 125.15, 90.68 124.71, 30.91 123.64 M138.59 123.64 C111.17 124.17, 82.89 123.28, 30.91 123.64 M30.91 123.64 C9.57 123.72, 0.19 114.77, 0 92.73 M30.91 123.64 C8.27 122, 0.44 115.59, 0 92.73 M0 92.73 C-0.48 75.33, -2.14 59.31, 0 30.91 M0 92.73 C-0.38 70.9, -0.85 48.83, 0 30.91 M0 30.91 C1.5 11.78, 9.76 0.04, 30.91 0 M0 30.91 C2.12 8.56, 11.52 1.07, 30.91 0" stroke="#000000" stroke-width="1" fill="none"></path></g><g transform="translate(757.33632818974 1025.5677933835846) rotate(0 42.819969177246094 12)"><text x="42.819969177246094" y="0" font-family="Virgil, Segoe UI Emoji" font-size="20px" fill="#000000" text-anchor="middle" style="white-space: pre;" direction="ltr" dominant-baseline="text-before-edge">DataFile</text></g><g stroke-linecap="round"><g transform="translate(794.6448160096847 142.466150175723) rotate(0 -0.8552824323289769 155.63153438648249)"><path d="M0 0 C-0.29 51.88, -1.43 259.39, -1.71 311.26 M0 0 C-0.29 51.88, -1.43 259.39, -1.71 311.26" stroke="#000000" stroke-width="1" fill="none"></path></g><g transform="translate(794.6448160096847 142.466150175723) rotate(0 -0.8552824323289769 155.63153438648249)"><path d="M-11.82 283.02 C-8.84 291.34, -5.86 299.67, -1.71 311.26 M-11.82 283.02 C-8.7 291.72, -5.59 300.43, -1.71 311.26" stroke="#000000" stroke-width="1" fill="none"></path></g><g transform="translate(794.6448160096847 142.466150175723) rotate(0 -0.8552824323289769 155.63153438648249)"><path d="M8.7 283.13 C5.63 291.42, 2.57 299.71, -1.71 311.26 M8.7 283.13 C5.49 291.8, 2.28 300.47, -1.71 311.26" stroke="#000000" stroke-width="1" fill="none"></path></g></g><mask></mask><g stroke-linecap="round"><g transform="translate(800.6468766962266 878.081378733246) rotate(0 -1.1328216184085704 44.69285393592844)"><path d="M0 0 C-0.38 14.9, -1.89 74.49, -2.27 89.39 M0 0 C-0.38 14.9, -1.89 74.49, -2.27 89.39" stroke="#000000" stroke-width="1" fill="none"></path></g><g transform="translate(800.6468766962266 878.081378733246) rotate(0 -1.1328216184085704 44.69285393592844)"><path d="M-11.81 60.94 C-9.65 67.37, -7.5 73.79, -2.27 89.39 M-11.81 60.94 C-9.87 66.72, -7.93 72.49, -2.27 89.39" stroke="#000000" stroke-width="1" fill="none"></path></g><g transform="translate(800.6468766962266 878.081378733246) rotate(0 -1.1328216184085704 44.69285393592844)"><path d="M8.71 61.46 C6.23 67.77, 3.75 74.08, -2.27 89.39 M8.71 61.46 C6.48 67.13, 4.25 72.8, -2.27 89.39" stroke="#000000" stroke-width="1" fill="none"></path></g></g><mask></mask><g stroke-linecap="round"><g transform="translate(878.4581085836903 117.79264215965509) rotate(0 96.20826452475944 45.476780858820916)"><path d="M0 0 C32.07 15.16, 160.35 75.79, 192.42 90.95 M0 0 C32.07 15.16, 160.35 75.79, 192.42 90.95" stroke="#000000" stroke-width="1" fill="none"></path></g><g transform="translate(878.4581085836903 117.79264215965509) rotate(0 96.20826452475944 45.476780858820916)"><path d="M162.54 88.18 C169.23 88.8, 175.91 89.42, 192.42 90.95 M162.54 88.18 C170.97 88.96, 179.4 89.75, 192.42 90.95" stroke="#000000" stroke-width="1" fill="none"></path></g><g transform="translate(878.4581085836903 117.79264215965509) rotate(0 96.20826452475944 45.476780858820916)"><path d="M171.31 69.63 C176.04 74.4, 180.76 79.17, 192.42 90.95 M171.31 69.63 C177.27 75.65, 183.22 81.66, 192.42 90.95" stroke="#000000" stroke-width="1" fill="none"></path></g></g><mask></mask><g stroke-linecap="round" transform="translate(346.3095428914603 208.8514875360354) rotate(0 84.74807425179961 61.81925327271961)"><path d="M7.57 7.91 C7.57 7.91, 7.57 7.91, 7.57 7.91 M7.57 7.91 C7.57 7.91, 7.57 7.91, 7.57 7.91 M3.37 18.83 C6.7 14.67, 10.51 13.26, 17.81 2.23 M3.37 18.83 C8.48 12.68, 14.8 6.23, 17.81 2.23 M2.46 25.99 C9.73 17.73, 14.99 11.27, 24.11 1.08 M2.46 25.99 C9.77 17.26, 17.2 10.32, 24.11 1.08 M2.85 31.63 C11.62 18.83, 22.45 7.64, 29.75 0.69 M2.85 31.63 C9.26 25.37, 13.88 19.11, 29.75 0.69 M2.59 38.03 C7.75 30.77, 17.23 24.75, 33.42 2.55 M2.59 38.03 C9.76 30.72, 17.52 21.05, 33.42 2.55 M2.98 43.67 C13.06 33.69, 21.76 21.2, 39.07 2.16 M2.98 43.67 C12.61 32.21, 24.65 18.89, 39.07 2.16 M2.72 50.07 C11.06 39.98, 24.45 27.41, 44.05 2.52 M2.72 50.07 C15.85 35.22, 27.43 21.79, 44.05 2.52 M2.46 56.46 C12.14 41.45, 26.85 27.07, 49.7 2.13 M2.46 56.46 C14.56 43.74, 26.32 29.4, 49.7 2.13 M2.86 62.11 C15.58 47.97, 28.16 36.39, 54.68 2.49 M2.86 62.11 C21.02 41.38, 37.34 21.87, 54.68 2.49 M2.59 68.51 C18.79 48.09, 38.99 29.26, 60.33 2.09 M2.59 68.51 C20.35 47.16, 39.52 26.56, 60.33 2.09 M2.99 74.15 C17.71 54.61, 32.59 40.87, 65.31 2.45 M2.99 74.15 C28.27 48.01, 51.06 20.18, 65.31 2.45 M2.73 80.55 C21.25 56.33, 40.07 35.38, 70.96 2.06 M2.73 80.55 C19.04 62.02, 35.46 42.95, 70.96 2.06 M2.47 86.94 C23.83 61.15, 47.14 32.06, 75.94 2.42 M2.47 86.94 C30.57 55.44, 56.35 24.24, 75.94 2.42 M2.86 92.59 C30.04 60.33, 56.93 31.33, 81.59 2.02 M2.86 92.59 C31.42 60.62, 58.65 29.12, 81.59 2.02 M1.29 100.49 C23.57 73.51, 45.65 51.18, 86.57 2.38 M1.29 100.49 C25.82 72.74, 50.82 43.03, 86.57 2.38 M2.34 105.38 C30.32 73.15, 59.45 40.72, 92.22 1.99 M2.34 105.38 C33.99 68.69, 63.96 32.79, 92.22 1.99 M4.7 108.76 C30.28 80.43, 58.91 48.99, 97.2 2.35 M4.7 108.76 C41.71 67.24, 78.12 24.13, 97.2 2.35 M7.06 112.14 C39.6 74.54, 70.95 37.89, 102.19 2.71 M7.06 112.14 C35.63 77.45, 63.15 45.38, 102.19 2.71 M8.77 116.27 C47.29 70.21, 85.49 27.72, 107.83 2.31 M8.77 116.27 C31.36 92.48, 51.86 66.13, 107.83 2.31 M11.79 118.9 C52.77 72.44, 90.31 27.83, 112.82 2.67 M11.79 118.9 C35.29 91.46, 60.68 62.54, 112.82 2.67 M15.46 120.77 C47.73 84.01, 78.72 45.43, 118.46 2.28 M15.46 120.77 C50.49 81.22, 84.97 41.43, 118.46 2.28 M19.14 122.64 C59.85 77.08, 97.8 29.81, 123.45 2.64 M19.14 122.64 C57.81 80.13, 96.84 34.55, 123.45 2.64 M23.47 123.75 C46.82 95.34, 74.67 65.95, 129.09 2.24 M23.47 123.75 C46.55 97.5, 69.26 73.13, 129.09 2.24 M28.46 124.11 C55.62 89.97, 85.63 57.93, 134.08 2.6 M28.46 124.11 C52.01 95.71, 76.34 65.75, 134.08 2.6 M32.79 125.23 C66.63 86.56, 98.51 47.72, 140.38 1.46 M32.79 125.23 C71.77 80.12, 110.74 35.3, 140.38 1.46 M37.77 125.59 C73.03 83.97, 109.53 43.51, 145.37 1.82 M37.77 125.59 C77.83 78.88, 119.18 33.62, 145.37 1.82 M43.42 125.19 C68.52 95.26, 95.31 70.6, 149.7 2.93 M43.42 125.19 C82.24 80.97, 121.11 36.22, 149.7 2.93 M48.4 125.55 C80.33 89.27, 109.71 54.6, 154.03 4.04 M48.4 125.55 C77.37 93.55, 105.13 59.93, 154.03 4.04 M54.05 125.16 C86.55 86.27, 120.14 46.88, 157.7 5.91 M54.05 125.16 C83.26 91.66, 113.33 56.18, 157.7 5.91 M59.03 125.52 C97.41 79.6, 137.26 35.52, 161.38 7.78 M59.03 125.52 C100.19 79.06, 139.04 34.58, 161.38 7.78 M64.68 125.12 C94.46 93.68, 124.09 59.67, 164.4 10.41 M64.68 125.12 C85.7 100.07, 109.35 73.29, 164.4 10.41 M69.66 125.48 C102.78 92.12, 133.18 54.98, 166.76 13.79 M69.66 125.48 C103.34 86.93, 139.26 47, 166.76 13.79 M75.31 125.09 C110.08 83.33, 148.13 41.02, 168.47 17.92 M75.31 125.09 C110.87 84.35, 144.56 44.39, 168.47 17.92 M80.29 125.45 C106.14 94.14, 133.78 64.15, 168.86 23.56 M80.29 125.45 C112.98 87.93, 145.13 51.16, 168.86 23.56 M85.94 125.06 C110.64 96.48, 135.11 68.86, 169.91 28.45 M85.94 125.06 C118.38 88.59, 150.19 52.46, 169.91 28.45 M90.92 125.42 C122.83 87.81, 153.92 54.14, 171.62 32.59 M90.92 125.42 C119.34 93.03, 148.84 59.73, 171.62 32.59 M96.57 125.02 C116.77 104.35, 133.87 80.02, 171.36 38.98 M96.57 125.02 C121.5 95.73, 147.99 65.21, 171.36 38.98 M101.55 125.38 C126.53 97.36, 152.72 68.4, 171.75 44.63 M101.55 125.38 C120.57 104.99, 138.07 84.17, 171.75 44.63 M107.2 124.99 C127.05 102.77, 144.8 78, 171.49 51.02 M107.2 124.99 C125.75 106.29, 143.09 84.96, 171.49 51.02 M112.18 125.35 C126.05 107.09, 142.79 87.86, 171.23 57.42 M112.18 125.35 C132.75 100.89, 154.44 76.18, 171.23 57.42 M117.83 124.95 C132.37 109.88, 146.2 92.81, 171.62 63.07 M117.83 124.95 C137.43 100.96, 158.55 78.57, 171.62 63.07 M122.82 125.31 C134.23 112.62, 144.65 100.61, 171.36 69.46 M122.82 125.31 C137.54 107.64, 152.71 90.26, 171.36 69.46 M128.46 124.92 C141.46 112.31, 152.06 97.63, 171.1 75.86 M128.46 124.92 C143.98 106.44, 161.46 87.18, 171.1 75.86 M133.45 125.28 C146.72 110.79, 156.93 98.21, 171.5 81.5 M133.45 125.28 C146.69 110.34, 158.43 95.02, 171.5 81.5 M139.74 124.13 C147.22 117.55, 152.92 109.25, 171.24 87.9 M139.74 124.13 C148.94 114.04, 157.5 104.79, 171.24 87.9 M145.39 123.73 C152.49 114.25, 161.29 103.04, 170.97 94.3 M145.39 123.73 C150.38 117.08, 155.21 111.66, 170.97 94.3 M152.34 121.83 C154.75 118.7, 158.28 112.89, 170.06 101.45 M152.34 121.83 C157.05 117.19, 162.19 110.06, 170.06 101.45" stroke="#868e96" stroke-width="0.5" fill="none"></path><path d="M30.91 0 M30.91 0 C65.32 -1.02, 104.82 0.01, 138.59 0 M30.91 0 C60.94 -0.42, 91.47 0.06, 138.59 0 M138.59 0 C160.98 1.06, 171.22 11.49, 169.5 30.91 M138.59 0 C156.95 -1.74, 168.87 10.51, 169.5 30.91 M169.5 30.91 C169.39 43.35, 171.75 60.25, 169.5 92.73 M169.5 30.91 C170.06 51.43, 169.42 71.9, 169.5 92.73 M169.5 92.73 C170.22 113.9, 160.23 121.67, 138.59 123.64 M169.5 92.73 C170.01 111.26, 159.68 124.27, 138.59 123.64 M138.59 123.64 C99.45 121.83, 62.19 122.74, 30.91 123.64 M138.59 123.64 C104.18 123.27, 67.76 122.81, 30.91 123.64 M30.91 123.64 C9.03 122.84, -1.3 114.9, 0 92.73 M30.91 123.64 C9.42 122.55, -2.07 115.43, 0 92.73 M0 92.73 C0.56 77.36, -1.27 62.61, 0 30.91 M0 92.73 C1.14 72.64, 0.29 50.53, 0 30.91 M0 30.91 C1.91 11.03, 8.87 -1.68, 30.91 0 M0 30.91 C-0.12 10.93, 10.06 -1.65, 30.91 0" stroke="#000000" stroke-width="1" fill="none"></path></g><g transform="translate(400.47764582978334 258.670740808755) rotate(0 30.579971313476562 12)"><text x="30.579971313476562" y="0" font-family="Virgil, Segoe UI Emoji" font-size="20px" fill="#000000" text-anchor="middle" style="white-space: pre;" direction="ltr" dominant-baseline="text-before-edge">KeyDir</text></g><g stroke-linecap="round"><g transform="translate(697.0179755375384 126.21831609408696) rotate(0 -87.8283866164818 46.838048489805374)"><path d="M0 0 C-29.28 15.61, -146.38 78.06, -175.66 93.68 M0 0 C-29.28 15.61, -146.38 78.06, -175.66 93.68" stroke="#000000" stroke-width="1" fill="none"></path></g><g transform="translate(697.0179755375384 126.21831609408696) rotate(0 -87.8283866164818 46.838048489805374)"><path d="M-155.61 71.36 C-162.99 79.57, -170.37 87.79, -175.66 93.68 M-155.61 71.36 C-160.84 77.17, -166.06 82.99, -175.66 93.68" stroke="#000000" stroke-width="1" fill="none"></path></g><g transform="translate(697.0179755375384 126.21831609408696) rotate(0 -87.8283866164818 46.838048489805374)"><path d="M-145.95 89.46 C-156.89 91.01, -167.82 92.57, -175.66 93.68 M-145.95 89.46 C-153.7 90.56, -161.44 91.66, -175.66 93.68" stroke="#000000" stroke-width="1" fill="none"></path></g></g><mask></mask><g stroke-linecap="round" transform="translate(10 204.01130599458907) rotate(0 84.74807425179961 61.81925327271961)"><path d="M30.91 0 M30.91 0 C72.19 -1.8, 114.44 -1.8, 138.59 0 M30.91 0 C60.99 0.67, 90.89 0.74, 138.59 0 M138.59 0 C159.68 0.96, 169.33 10.71, 169.5 30.91 M138.59 0 C158.55 2.26, 170.88 8.64, 169.5 30.91 M169.5 30.91 C168.29 50.33, 168.57 67.23, 169.5 92.73 M169.5 30.91 C170.46 44.68, 170.02 56.95, 169.5 92.73 M169.5 92.73 C170.54 114.14, 158.88 122.51, 138.59 123.64 M169.5 92.73 C170.09 112.91, 157.58 125.85, 138.59 123.64 M138.59 123.64 C102.15 123.49, 65.34 123.67, 30.91 123.64 M138.59 123.64 C103.38 124.64, 67.08 125.48, 30.91 123.64 M30.91 123.64 C10.93 122.61, -1.93 111.73, 0 92.73 M30.91 123.64 C8.62 125.81, 2.16 114.01, 0 92.73 M0 92.73 C1.68 78.58, 0.11 65.42, 0 30.91 M0 92.73 C0.63 73.14, 0.21 52.9, 0 30.91 M0 30.91 C-1.09 11.74, 12.12 0.38, 30.91 0 M0 30.91 C-0.75 9.97, 10 1.39, 30.91 0" stroke="#000000" stroke-width="1" fill="none"></path></g><g transform="translate(41.61812277474883 253.83055926730867) rotate(0 53.12995147705078 12)"><text x="53.12995147705078" y="0" font-family="Virgil, Segoe UI Emoji" font-size="20px" fill="#000000" text-anchor="middle" style="white-space: pre;" direction="ltr" dominant-baseline="text-before-edge">HashKeyDir</text></g><g stroke-linecap="round"><g transform="translate(192.7150801235366 268.7147109536795) rotate(0 72.41959476047964 -0.44512059059059084)"><path d="M0 0 C24.14 -0.15, 120.7 -0.74, 144.84 -0.89 M0 0 C24.14 -0.15, 120.7 -0.74, 144.84 -0.89" stroke="#000000" stroke-width="1" fill="none"></path></g><g transform="translate(192.7150801235366 268.7147109536795) rotate(0 72.41959476047964 -0.44512059059059084)"><path d="M144.84 -0.89 L131.28 5.53 L131.21 -7.15 L144.84 -0.89" stroke="none" stroke-width="0" fill="#000000" fill-rule="evenodd"></path><path d="M144.84 -0.89 C141.83 0.53, 138.83 1.96, 131.28 5.53 M144.84 -0.89 C139.49 1.65, 134.13 4.18, 131.28 5.53 M131.28 5.53 C131.26 1.61, 131.24 -2.31, 131.21 -7.15 M131.28 5.53 C131.26 1.24, 131.23 -3.05, 131.21 -7.15 M131.21 -7.15 C136.42 -4.75, 141.64 -2.36, 144.84 -0.89 M131.21 -7.15 C136.47 -4.73, 141.74 -2.31, 144.84 -0.89 M144.84 -0.89 C144.84 -0.89, 144.84 -0.89, 144.84 -0.89 M144.84 -0.89 C144.84 -0.89, 144.84 -0.89, 144.84 -0.89" stroke="#000000" stroke-width="1" fill="none"></path></g></g><mask></mask><g stroke-linecap="round" transform="translate(719.3179982812035 465.70634812616504) rotate(0 84.74807425179961 61.81925327271961)"><path d="M7.57 7.91 C7.57 7.91, 7.57 7.91, 7.57 7.91 M7.57 7.91 C7.57 7.91, 7.57 7.91, 7.57 7.91 M3.37 18.83 C9.56 10.97, 14.25 6.34, 17.81 2.23 M3.37 18.83 C6.62 15.08, 12.1 9.05, 17.81 2.23 M2.46 25.99 C9.57 17.35, 17.85 9.42, 24.11 1.08 M2.46 25.99 C11.21 17.01, 18.82 6.87, 24.11 1.08 M2.85 31.63 C13.51 20.9, 24.3 9.71, 29.75 0.69 M2.85 31.63 C10.13 23.16, 18.39 13.39, 29.75 0.69 M2.59 38.03 C8.02 28.82, 17.3 24.08, 33.42 2.55 M2.59 38.03 C13.02 25.31, 23.6 13.95, 33.42 2.55 M2.98 43.67 C12.66 33.23, 24.02 18.51, 39.07 2.16 M2.98 43.67 C12.21 33.34, 20.88 21.97, 39.07 2.16 M2.72 50.07 C13.69 37.61, 23.69 27.29, 44.05 2.52 M2.72 50.07 C15.53 34.61, 28.41 20.76, 44.05 2.52 M2.46 56.46 C20.87 38.46, 34.97 15.7, 49.7 2.13 M2.46 56.46 C13.05 43.87, 22.52 33.13, 49.7 2.13 M2.86 62.11 C21.82 42.63, 36.58 23.32, 54.68 2.49 M2.86 62.11 C23.17 38.37, 43.97 14.84, 54.68 2.49 M2.59 68.51 C16.77 52.63, 30 38.73, 60.33 2.09 M2.59 68.51 C15.03 53, 28.3 37.5, 60.33 2.09 M2.99 74.15 C23.01 50.69, 43.39 24.72, 65.31 2.45 M2.99 74.15 C26.56 46.09, 51.25 17.96, 65.31 2.45 M2.73 80.55 C24.94 55.03, 45.04 29.92, 70.96 2.06 M2.73 80.55 C22.26 58.51, 42 36.2, 70.96 2.06 M2.47 86.94 C25.29 61.1, 46.93 37.29, 75.94 2.42 M2.47 86.94 C29.8 56.5, 54.65 25.52, 75.94 2.42 M2.86 92.59 C25.3 67.43, 44.91 42.64, 81.59 2.02 M2.86 92.59 C31.79 59.68, 58.54 28.01, 81.59 2.02 M1.29 100.49 C25.68 72.64, 45.57 47.73, 86.57 2.38 M1.29 100.49 C19.98 77.9, 39.36 56.09, 86.57 2.38 M2.34 105.38 C24.57 79.37, 48.58 54.19, 92.22 1.99 M2.34 105.38 C36.15 67.52, 69.17 27.3, 92.22 1.99 M4.7 108.76 C27.51 81.28, 52.7 55.38, 97.2 2.35 M4.7 108.76 C41.32 67.87, 74.45 28.76, 97.2 2.35 M7.06 112.14 C36.59 78.91, 61.08 50.55, 102.19 2.71 M7.06 112.14 C31.15 85.09, 53.12 58.99, 102.19 2.71 M8.77 116.27 C34.84 86.2, 61.91 55.07, 107.83 2.31 M8.77 116.27 C37.4 85.58, 64.5 53.93, 107.83 2.31 M11.79 118.9 C45.26 83.71, 75.65 46.35, 112.82 2.67 M11.79 118.9 C32.14 92.7, 54.08 68.32, 112.82 2.67 M15.46 120.77 C45.7 88.35, 75.4 53.32, 118.46 2.28 M15.46 120.77 C39.55 92.22, 65.85 62.73, 118.46 2.28 M19.14 122.64 C49.04 83.05, 82.55 48.68, 123.45 2.64 M19.14 122.64 C53.73 82.47, 87.71 42.98, 123.45 2.64 M23.47 123.75 C52.74 88.83, 86.82 52.12, 129.09 2.24 M23.47 123.75 C53.3 92.38, 81.67 59.38, 129.09 2.24 M28.46 124.11 C71.14 76.11, 113.01 28.79, 134.08 2.6 M28.46 124.11 C70.78 77.77, 110.14 31.46, 134.08 2.6 M32.79 125.23 C60.78 94.37, 85.94 67.44, 140.38 1.46 M32.79 125.23 C55.61 99.68, 78.21 73.69, 140.38 1.46 M37.77 125.59 C72.32 84.87, 105.28 44.13, 145.37 1.82 M37.77 125.59 C74.94 82.72, 112.24 40.45, 145.37 1.82 M43.42 125.19 C69.76 92.86, 98.67 60.53, 149.7 2.93 M43.42 125.19 C84.17 81.25, 124.01 34.19, 149.7 2.93 M48.4 125.55 C84.74 80.91, 123.85 35.58, 154.03 4.04 M48.4 125.55 C81.92 85.28, 117.54 45.58, 154.03 4.04 M54.05 125.16 C81.48 91.37, 112.83 55.09, 157.7 5.91 M54.05 125.16 C90.58 83.29, 129.08 42.53, 157.7 5.91 M59.03 125.52 C84.59 94.84, 111.41 64.69, 161.38 7.78 M59.03 125.52 C81.83 98.16, 105.05 71.38, 161.38 7.78 M64.68 125.12 C88.57 98.63, 111.48 72.31, 164.4 10.41 M64.68 125.12 C85.37 101.63, 106 78.76, 164.4 10.41 M69.66 125.48 C92.26 101.61, 110.89 77.77, 166.76 13.79 M69.66 125.48 C99.52 91.97, 127.84 57.6, 166.76 13.79 M75.31 125.09 C110.43 86.51, 148.11 43.16, 168.47 17.92 M75.31 125.09 C95.11 100.04, 117.55 76.91, 168.47 17.92 M80.29 125.45 C110.78 89.9, 146.44 50.58, 168.86 23.56 M80.29 125.45 C114.74 85.06, 149 47.38, 168.86 23.56 M85.94 125.06 C103.3 105.19, 121.45 84.22, 169.91 28.45 M85.94 125.06 C105.96 103.27, 123.26 82.94, 169.91 28.45 M90.92 125.42 C116 97.52, 136.37 73.39, 171.62 32.59 M90.92 125.42 C111.95 102.39, 133.01 77.37, 171.62 32.59 M96.57 125.02 C111.63 108.64, 125.41 90.92, 171.36 38.98 M96.57 125.02 C113.85 105.9, 128.59 86.39, 171.36 38.98 M101.55 125.38 C122.56 100.62, 140.55 78.97, 171.75 44.63 M101.55 125.38 C122.32 101.96, 141.82 79.5, 171.75 44.63 M107.2 124.99 C132.13 98, 154.76 68.07, 171.49 51.02 M107.2 124.99 C129.08 98.97, 151.93 74.42, 171.49 51.02 M112.18 125.35 C128.6 104.65, 148.35 83.49, 171.23 57.42 M112.18 125.35 C134.28 99.98, 155.27 75.15, 171.23 57.42 M117.83 124.95 C138.7 101.64, 159.24 77.53, 171.62 63.07 M117.83 124.95 C137.5 102.85, 158.08 78.07, 171.62 63.07 M122.82 125.31 C132.82 116.17, 143.26 103.41, 171.36 69.46 M122.82 125.31 C131.9 113.64, 141.4 101.31, 171.36 69.46 M128.46 124.92 C140.08 113.09, 149.17 99.91, 171.1 75.86 M128.46 124.92 C143.67 108.06, 157.81 90.2, 171.1 75.86 M133.45 125.28 C144.6 110.8, 157.69 98.38, 171.5 81.5 M133.45 125.28 C142.26 113.61, 152 103.49, 171.5 81.5 M139.74 124.13 C151.04 109.74, 162.98 99.68, 171.24 87.9 M139.74 124.13 C151.19 109.5, 164.6 96.22, 171.24 87.9 M145.39 123.73 C150.29 116.79, 157.02 109.72, 170.97 94.3 M145.39 123.73 C153.08 113.89, 161.56 103.98, 170.97 94.3 M152.34 121.83 C157.21 116.34, 160.6 111.4, 170.06 101.45 M152.34 121.83 C156.82 116.44, 161.54 111.42, 170.06 101.45" stroke="#868e96" stroke-width="0.5" fill="none"></path><path d="M30.91 0 M30.91 0 C61.25 1.29, 93.09 -0.72, 138.59 0 M30.91 0 C54.11 -0.52, 76.21 0.08, 138.59 0 M138.59 0 C161.08 -0.14, 167.62 11.56, 169.5 30.91 M138.59 0 C159.45 2.25, 171.24 12.48, 169.5 30.91 M169.5 30.91 C170.85 44.81, 167.84 57.39, 169.5 92.73 M169.5 30.91 C169.62 52.15, 169.9 71.04, 169.5 92.73 M169.5 92.73 C169.71 114.61, 160.04 122.68, 138.59 123.64 M169.5 92.73 C169.42 112.01, 158.41 124.99, 138.59 123.64 M138.59 123.64 C113.02 123.7, 86.43 124, 30.91 123.64 M138.59 123.64 C115.48 123.8, 92.31 123.68, 30.91 123.64 M30.91 123.64 C10.42 124.13, -0.6 114.9, 0 92.73 M30.91 123.64 C12.27 124.92, 1.26 111.63, 0 92.73 M0 92.73 C1.58 71.37, -1.02 53.91, 0 30.91 M0 92.73 C0 73.14, -0.87 51.6, 0 30.91 M0 30.91 C1.04 8.36, 11 -1.55, 30.91 0 M0 30.91 C-0.14 12.09, 10.76 0.04, 30.91 0" stroke="#000000" stroke-width="1" fill="none"></path></g><g transform="translate(765.3461094592726 515.5256013988846) rotate(0 38.71996307373047 12)"><text x="38.71996307373047" y="0" font-family="Virgil, Segoe UI Emoji" font-size="20px" fill="#000000" text-anchor="middle" style="white-space: pre;" direction="ltr" dominant-baseline="text-before-edge">Storage</text></g><g stroke-linecap="round"><g transform="translate(801.437304450711 739.5928128543785) rotate(0 0.08147412497237383 -70.99818626747589)"><path d="M0 0 C0.03 -23.67, 0.14 -118.33, 0.16 -142 M0 0 C0.03 -23.67, 0.14 -118.33, 0.16 -142" stroke="#000000" stroke-width="1" fill="none"></path></g><g transform="translate(801.437304450711 739.5928128543785) rotate(0 0.08147412497237383 -70.99818626747589)"><path d="M0.16 -142 L6.49 -128.39 L-6.19 -128.41 L0.16 -142" stroke="none" stroke-width="0" fill="#000000" fill-rule="evenodd"></path><path d="M0.16 -142 C1.91 -138.25, 3.65 -134.49, 6.49 -128.39 M0.16 -142 C2.24 -137.54, 4.31 -133.08, 6.49 -128.39 M6.49 -128.39 C3.16 -128.4, -0.16 -128.4, -6.19 -128.41 M6.49 -128.39 C2.28 -128.4, -1.93 -128.4, -6.19 -128.41 M-6.19 -128.41 C-3.95 -133.19, -1.72 -137.97, 0.16 -142 M-6.19 -128.41 C-4.59 -131.83, -2.99 -135.25, 0.16 -142 M0.16 -142 C0.16 -142, 0.16 -142, 0.16 -142 M0.16 -142 C0.16 -142, 0.16 -142, 0.16 -142" stroke="#000000" stroke-width="1" fill="none"></path></g></g><mask></mask><g stroke-linecap="round" transform="translate(352.52405170447264 458.3864058380457) rotate(0 84.74807425179961 61.81925327271961)"><path d="M7.57 7.91 C7.57 7.91, 7.57 7.91, 7.57 7.91 M7.57 7.91 C7.57 7.91, 7.57 7.91, 7.57 7.91 M3.37 18.83 C6.45 15.68, 10.71 11.91, 17.81 2.23 M3.37 18.83 C9.25 11.86, 14.1 6.14, 17.81 2.23 M2.46 25.99 C9.23 19.15, 14.59 12.46, 24.11 1.08 M2.46 25.99 C6.85 20.01, 13.92 12.39, 24.11 1.08 M2.85 31.63 C10.39 20.61, 20.59 9.69, 29.75 0.69 M2.85 31.63 C8.33 24.62, 15.03 16.82, 29.75 0.69 M2.59 38.03 C10.83 28.03, 23.81 14.61, 33.42 2.55 M2.59 38.03 C10.33 29.68, 18.02 20.26, 33.42 2.55 M2.98 43.67 C15.17 30.32, 23.69 20.53, 39.07 2.16 M2.98 43.67 C12.6 34.6, 20.63 24.21, 39.07 2.16 M2.72 50.07 C14.34 38.42, 22.34 24.52, 44.05 2.52 M2.72 50.07 C12.8 37.98, 23.13 25.24, 44.05 2.52 M2.46 56.46 C16.94 37.42, 34.14 20.23, 49.7 2.13 M2.46 56.46 C19.56 37.14, 34.5 17.69, 49.7 2.13 M2.86 62.11 C15.59 45.97, 30.54 30.83, 54.68 2.49 M2.86 62.11 C23.56 39.65, 42.16 16.34, 54.68 2.49 M2.59 68.51 C14.16 53.4, 28.97 38.07, 60.33 2.09 M2.59 68.51 C24.14 41.66, 47.79 16.3, 60.33 2.09 M2.99 74.15 C24.62 50.05, 46.63 23.17, 65.31 2.45 M2.99 74.15 C22.65 52.22, 43.02 28.23, 65.31 2.45 M2.73 80.55 C30.04 49.81, 55.58 20.38, 70.96 2.06 M2.73 80.55 C22.15 58.13, 43.08 35.11, 70.96 2.06 M2.47 86.94 C16.68 70.13, 33.1 51.13, 75.94 2.42 M2.47 86.94 C29.45 56.34, 56.19 24.9, 75.94 2.42 M2.86 92.59 C24.5 68.24, 47.57 42.56, 81.59 2.02 M2.86 92.59 C21.56 69.59, 42.84 47.74, 81.59 2.02 M1.29 100.49 C28.54 70.84, 55.94 35.53, 86.57 2.38 M1.29 100.49 C34.39 61.71, 65.3 24.73, 86.57 2.38 M2.34 105.38 C24.97 82.58, 43.44 54.62, 92.22 1.99 M2.34 105.38 C33.51 70.29, 64.07 35.85, 92.22 1.99 M4.7 108.76 C35.21 72.06, 65.29 35.69, 97.2 2.35 M4.7 108.76 C25.82 83.42, 48.07 60.7, 97.2 2.35 M7.06 112.14 C35.59 80.95, 59.46 50.88, 102.19 2.71 M7.06 112.14 C39.71 75.51, 73.1 38.01, 102.19 2.71 M8.77 116.27 C34.6 83.98, 63.17 52.17, 107.83 2.31 M8.77 116.27 C41.25 76.72, 76.1 38.45, 107.83 2.31 M11.79 118.9 C40.5 89.3, 66.96 58.03, 112.82 2.67 M11.79 118.9 C42.22 83.44, 72.01 48.25, 112.82 2.67 M15.46 120.77 C47.59 81.93, 81.21 45.47, 118.46 2.28 M15.46 120.77 C48.85 81.47, 84.06 41.46, 118.46 2.28 M19.14 122.64 C58.26 78.69, 92.24 39.97, 123.45 2.64 M19.14 122.64 C60.18 78.1, 98.32 33.02, 123.45 2.64 M23.47 123.75 C42.84 99.8, 66.66 73.26, 129.09 2.24 M23.47 123.75 C47.53 96.1, 71.28 70.49, 129.09 2.24 M28.46 124.11 C60.26 83.53, 95.48 43.85, 134.08 2.6 M28.46 124.11 C68.27 79.62, 107.18 33.38, 134.08 2.6 M32.79 125.23 C56.85 94.09, 86.62 66.98, 140.38 1.46 M32.79 125.23 C75.09 76.05, 117 28.07, 140.38 1.46 M37.77 125.59 C65.51 93.25, 94.29 61.84, 145.37 1.82 M37.77 125.59 C60.1 101.02, 82.14 74.6, 145.37 1.82 M43.42 125.19 C77.06 84.63, 111.08 48.44, 149.7 2.93 M43.42 125.19 C68.07 97.27, 93.24 69.52, 149.7 2.93 M48.4 125.55 C78.91 88.83, 111.65 53.38, 154.03 4.04 M48.4 125.55 C77.59 92.93, 106.09 60.93, 154.03 4.04 M54.05 125.16 C83.75 93.2, 109.89 58.8, 157.7 5.91 M54.05 125.16 C83.79 91.11, 113.58 57.62, 157.7 5.91 M59.03 125.52 C83.06 98.71, 108.78 69.79, 161.38 7.78 M59.03 125.52 C84.48 99.6, 106.42 72.82, 161.38 7.78 M64.68 125.12 C96.98 86.48, 128.93 50.11, 164.4 10.41 M64.68 125.12 C93.17 91.75, 122.24 58.07, 164.4 10.41 M69.66 125.48 C103.11 90.63, 134.78 53.32, 166.76 13.79 M69.66 125.48 C95.11 96.75, 120.38 67.3, 166.76 13.79 M75.31 125.09 C95.51 99.43, 118.05 76.18, 168.47 17.92 M75.31 125.09 C111.91 82.8, 148.77 39.63, 168.47 17.92 M80.29 125.45 C111.32 91.3, 141.12 58.16, 168.86 23.56 M80.29 125.45 C97.14 104.1, 115.56 83.24, 168.86 23.56 M85.94 125.06 C113.3 94.45, 139.17 61.16, 169.91 28.45 M85.94 125.06 C111.49 97.17, 136.69 67.91, 169.91 28.45 M90.92 125.42 C108.94 105.4, 129.28 82.73, 171.62 32.59 M90.92 125.42 C122.01 90.35, 153.38 53.64, 171.62 32.59 M96.57 125.02 C122.77 95.89, 147.89 68.69, 171.36 38.98 M96.57 125.02 C119.43 100.07, 141.75 72.39, 171.36 38.98 M101.55 125.38 C120.4 104.52, 139.3 82.4, 171.75 44.63 M101.55 125.38 C117.11 108.04, 133.42 89, 171.75 44.63 M107.2 124.99 C126.49 101.12, 149.53 78.9, 171.49 51.02 M107.2 124.99 C125.41 104.24, 145.48 82.33, 171.49 51.02 M112.18 125.35 C126.64 112.46, 136.63 98.05, 171.23 57.42 M112.18 125.35 C125.43 111.19, 137.96 94.62, 171.23 57.42 M117.83 124.95 C136.78 107.24, 153.44 85.85, 171.62 63.07 M117.83 124.95 C135.06 104.12, 151.84 83.94, 171.62 63.07 M122.82 125.31 C134.96 114.81, 144.84 99.45, 171.36 69.46 M122.82 125.31 C140.65 105.4, 156.49 85.85, 171.36 69.46 M128.46 124.92 C140.41 107.87, 157.78 94.38, 171.1 75.86 M128.46 124.92 C138.53 113.3, 149.61 100.12, 171.1 75.86 M133.45 125.28 C146.98 109.26, 162.04 90.4, 171.5 81.5 M133.45 125.28 C145.08 112.32, 154.54 100.46, 171.5 81.5 M139.74 124.13 C150.73 110.83, 160.5 102.4, 171.24 87.9 M139.74 124.13 C150.62 111.92, 160.41 101.31, 171.24 87.9 M145.39 123.73 C150.73 117.64, 157.21 112.94, 170.97 94.3 M145.39 123.73 C155.46 111.85, 165.25 102.44, 170.97 94.3 M152.34 121.83 C156.21 117.4, 160.56 111.41, 170.06 101.45 M152.34 121.83 C158.83 114.93, 163.54 108.73, 170.06 101.45" stroke="#868e96" stroke-width="0.5" fill="none"></path><path d="M30.91 0 M30.91 0 C64.22 0.84, 94.16 2.28, 138.59 0 M30.91 0 C57.37 -0.06, 86.58 -0.59, 138.59 0 M138.59 0 C160.43 -0.39, 169.18 9.98, 169.5 30.91 M138.59 0 C159.36 -1.42, 171.66 10.45, 169.5 30.91 M169.5 30.91 C170.95 42.44, 169.5 55.58, 169.5 92.73 M169.5 30.91 C168.9 48.95, 169.51 64.67, 169.5 92.73 M169.5 92.73 C170.8 113.44, 160.63 124.48, 138.59 123.64 M169.5 92.73 C168.48 113.7, 160.79 125.87, 138.59 123.64 M138.59 123.64 C103.12 123.31, 69.66 122.1, 30.91 123.64 M138.59 123.64 C100.19 124.8, 62.64 124.08, 30.91 123.64 M30.91 123.64 C10.94 123.42, 0.68 114.64, 0 92.73 M30.91 123.64 C9.41 124.99, 1.68 111.71, 0 92.73 M0 92.73 C-2.06 71.88, -0.46 50.49, 0 30.91 M0 92.73 C-0.73 76.24, 0.09 61.15, 0 30.91 M0 30.91 C1.88 10.17, 8.65 0.42, 30.91 0 M0 30.91 C2.1 8.81, 8.04 1.5, 30.91 0" stroke="#000000" stroke-width="1" fill="none"></path></g><g transform="translate(373.8321921794168 508.2056591107653) rotate(0 63.43993377685547 12)"><text x="63.43993377685547" y="0" font-family="Virgil, Segoe UI Emoji" font-size="20px" fill="#000000" text-anchor="middle" style="white-space: pre;" direction="ltr" dominant-baseline="text-before-edge">ValuePosition</text></g><g stroke-linecap="round"><g transform="translate(710.1200650018559 528.0407131829924) rotate(0 -89.52069033627549 0.8951797767028324)"><path d="M0 0 C-56.46 0.56, -112.92 1.13, -179.04 1.79 M0 0 C-70.21 0.7, -140.41 1.4, -179.04 1.79" stroke="#000000" stroke-width="1" fill="none"></path></g><g transform="translate(710.1200650018559 528.0407131829924) rotate(0 -89.52069033627549 0.8951797767028324)"><path d="M-150.95 -8.75 C-159.81 -5.43, -168.67 -2.1, -179.04 1.79 M-150.95 -8.75 C-161.97 -4.62, -172.98 -0.48, -179.04 1.79" stroke="#000000" stroke-width="1" fill="none"></path></g><g transform="translate(710.1200650018559 528.0407131829924) rotate(0 -89.52069033627549 0.8951797767028324)"><path d="M-150.75 11.77 C-159.67 8.62, -168.59 5.48, -179.04 1.79 M-150.75 11.77 C-161.84 7.86, -172.94 3.94, -179.04 1.79" stroke="#000000" stroke-width="1" fill="none"></path></g></g><mask></mask><g stroke-linecap="round" transform="translate(357.7508943958587 745.7724676624008) rotate(0 91.5 62)"><path d="M31 0 M31 0 C61.95 -1.28, 93.78 -0.43, 152 0 M31 0 C78 0.12, 123.13 -0.31, 152 0 M152 0 C173.23 0.77, 182.32 11.37, 183 31 M152 0 C170.88 -1.25, 184 8.32, 183 31 M183 31 C185.08 53.19, 185.57 77.22, 183 93 M183 31 C183.09 50.2, 182.62 67.14, 183 93 M183 93 C184.74 113.23, 173.86 123.5, 152 124 M183 93 C180.85 113.4, 171.54 126.01, 152 124 M152 124 C108.6 121.25, 64.77 123.53, 31 124 M152 124 C112.87 125.56, 75.32 125.12, 31 124 M31 124 C10.32 123.88, 1.21 114.77, 0 93 M31 124 C8.1 121.76, 0.15 113.69, 0 93 M0 93 C-0.36 79.32, 0.51 61.77, 0 31 M0 93 C1.37 78.13, 0.75 61.37, 0 31 M0 31 C0.98 10.83, 9.91 -1.34, 31 0 M0 31 C0.92 8.92, 11.56 0.42, 31 0" stroke="#000000" stroke-width="1" fill="none"></path></g><g transform="translate(365.5209825916595 795.7724676624008) rotate(0 83.72991180419922 12)"><text x="83.72991180419922" y="0" font-family="Virgil, Segoe UI Emoji" font-size="20px" fill="#000000" text-anchor="middle" style="white-space: pre;" direction="ltr" dominant-baseline="text-before-edge">DiskValuePosition</text></g><g stroke-linecap="round"><g transform="translate(440.28090834814384 735.8181111966398) rotate(0 0.4609866153823532 -71.56258430672483)"><path d="M0 0 C0.2 -30.43, 0.39 -60.86, 0.92 -143.13 M0 0 C0.26 -40.42, 0.52 -80.85, 0.92 -143.13" stroke="#000000" stroke-width="1" fill="none"></path></g><g transform="translate(440.28090834814384 735.8181111966398) rotate(0 0.4609866153823532 -71.56258430672483)"><path d="M0.92 -143.13 L7.17 -129.49 L-5.5 -129.57 L0.92 -143.13" stroke="none" stroke-width="0" fill="#000000" fill-rule="evenodd"></path><path d="M0.92 -143.13 C2.25 -140.23, 3.58 -137.33, 7.17 -129.49 M0.92 -143.13 C2.69 -139.27, 4.45 -135.42, 7.17 -129.49 M7.17 -129.49 C3.07 -129.52, -1.03 -129.54, -5.5 -129.57 M7.17 -129.49 C2.78 -129.52, -1.62 -129.55, -5.5 -129.57 M-5.5 -129.57 C-3.42 -133.98, -1.33 -138.38, 0.92 -143.13 M-5.5 -129.57 C-3.52 -133.76, -1.54 -137.94, 0.92 -143.13 M0.92 -143.13 C0.92 -143.13, 0.92 -143.13, 0.92 -143.13 M0.92 -143.13 C0.92 -143.13, 0.92 -143.13, 0.92 -143.13" stroke="#000000" stroke-width="1" fill="none"></path></g></g><mask></mask><g stroke-linecap="round"><g transform="translate(716.002758846415 808.6866601989227) rotate(0 -84.33076911787612 0.2876900890602201)"><path d="M0 0 C-44.2 0.15, -88.4 0.3, -168.66 0.58 M0 0 C-44.11 0.15, -88.23 0.3, -168.66 0.58" stroke="#000000" stroke-width="1" fill="none"></path></g><g transform="translate(716.002758846415 808.6866601989227) rotate(0 -84.33076911787612 0.2876900890602201)"><path d="M-140.51 -9.78 C-147.88 -7.07, -155.26 -4.35, -168.66 0.58 M-140.51 -9.78 C-147.87 -7.07, -155.23 -4.36, -168.66 0.58" stroke="#000000" stroke-width="1" fill="none"></path></g><g transform="translate(716.002758846415 808.6866601989227) rotate(0 -84.33076911787612 0.2876900890602201)"><path d="M-140.44 10.74 C-147.83 8.08, -155.23 5.41, -168.66 0.58 M-140.44 10.74 C-147.82 8.08, -155.2 5.42, -168.66 0.58" stroke="#000000" stroke-width="1" fill="none"></path></g></g><mask></mask><g stroke-linecap="round"><g transform="translate(433.605021147001 341.44678190101604) rotate(0 1.4113347337631694 55.52314849207096)"><path d="M0 0 C0.7 27.5, 1.4 55.01, 2.82 111.05 M0 0 C0.85 33.4, 1.7 66.8, 2.82 111.05" stroke="#000000" stroke-width="1" fill="none"></path></g><g transform="translate(433.605021147001 341.44678190101604) rotate(0 1.4113347337631694 55.52314849207096)"><path d="M-8.15 83.13 C-5.43 90.04, -2.71 96.96, 2.82 111.05 M-8.15 83.13 C-4.85 91.52, -1.55 99.92, 2.82 111.05" stroke="#000000" stroke-width="1" fill="none"></path></g><g transform="translate(433.605021147001 341.44678190101604) rotate(0 1.4113347337631694 55.52314849207096)"><path d="M12.36 82.6 C10 89.65, 7.64 96.69, 2.82 111.05 M12.36 82.6 C9.49 91.16, 6.62 99.71, 2.82 111.05" stroke="#000000" stroke-width="1" fill="none"></path></g></g><mask></mask><g stroke-linecap="round"><g transform="translate(892.8014704098732 462.1159297000768) rotate(0 86.28326488756693 -63.85021217577935)"><path d="M0 0 C66.71 -49.36, 133.41 -98.73, 172.57 -127.7 M0 0 C36.46 -26.98, 72.91 -53.96, 172.57 -127.7" stroke="#000000" stroke-width="1" fill="none"></path></g><g transform="translate(892.8014704098732 462.1159297000768) rotate(0 86.28326488756693 -63.85021217577935)"><path d="M156.01 -102.68 C162.41 -112.35, 168.81 -122.02, 172.57 -127.7 M156.01 -102.68 C159.51 -107.97, 163.01 -113.25, 172.57 -127.7" stroke="#000000" stroke-width="1" fill="none"></path></g><g transform="translate(892.8014704098732 462.1159297000768) rotate(0 86.28326488756693 -63.85021217577935)"><path d="M143.8 -119.18 C154.92 -122.47, 166.04 -125.77, 172.57 -127.7 M143.8 -119.18 C149.88 -120.98, 155.96 -122.78, 172.57 -127.7" stroke="#000000" stroke-width="1" fill="none"></path></g></g><mask></mask></svg>